**ABCDEFGHIJKLMNOPQRSTUVWXYZabcdefghijklmnopqrstuvwxyz**************************
**PARASOLID !"#$%&'()*+,-./:;<=>?@[\]^_`{|}~0123456789**************************
**PART1;
MC=AMD64;
MC_MODEL=AMD64 Family 23 Model 113 Stepping 0, AuthenticAMD;
MC_ID=unknown;
OS=Windows_NT;
OS_RELEASE=unknown;
FRU=Parasolid Version 31.1, build 290,  3- 9-2020;
APPL=SOLIDWORKS 2020-2020128;
SITE=;
USER=unknown;
FORMAT=text;
GUISE=transmit;
KEY=makeProjectedPlanarWire;
FILE=makeProjectedPlanarWire.x_t;
DATE=Fri Jul 23 19:27:23 2021;
**PART2;
SCH=SCH_3101290_31100;
USFLD_SIZE=0;
**PART3;
**END_OF_HEADER*****************************************************************
T51 : TRANSMIT FILE created by modeller version 310129023 SCH_3101290_31100_1300
6222 0 12 34 CCCCCCI4 mesh1006 0 I8 polyline1008 0 CCCCCCCDI5 owner1040 0 CCCCCC
I13 boundary_mesh1006 0 I17 boundary_polyline1008 0 CCCA16 index_map_offset0 0 1
 dA9 index_map82 0 A17 node_id_index_map82 0 A20 schema_embedding_map82 0 A5 chi
ld12 0 A14 lowest_node_id0 0 1 dA16 mesh_offset_data206 0 Z1 434 0 0 0 0 0 0 0 0
 1e3 1e-8 0 2 0 1 0 3 1 3 4 5 6 0 0 7 8 9 0 0 0 0 0 0 0 13 255 3 93 0 1 0 10 0 0
 7 10 50 255 4 3 0 10 0 0 0 +0 0 0 0 0 -1 -1 0 0 30 255 5 68 0 8 11 0 0 +0 .0075
 0 1 0 0 29 255 6 91 0 9 12 0 .025 .0075 0 19 8 CCCCCCCA5 owner12 0 Z7 92 0 1 0
 0 3 V0 16 255 8 66 0 ?13 0 14 5 0 0 1 18 255 9 89 0 15 0 16 6 ?1 17 255 15 0 0
 0 0 9 17 18 0 13 -18 16 86 0 19 9 20 12 ?1 17 19 0 21 13 22 16 23 14 0 24 +18 2
0 83 0 22 16 25 26 ?1 29 12 88 0 16 26 6 -.025 .0075 0 29 26 85 0 20 27 12 -.025
 -.0075 0 29 27 82 0 25 28 26 -.0204878012485479 -.0075 0 18 25 80 0 29 20 30 27
 ?1 29 28 79 0 30 31 27 .0204878012485499 -.00750000000000333 0 18 30 77 0 32 25
 33 28 ?1 29 31 76 0 33 0 28 .025 -.0075 0 18 33 74 0 17 30 0 31 ?1 17 17 0 21 3
2 13 33 15 18 0 34 +15 255 21 9 0 17 10 0 17 32 0 21 29 17 30 34 35 0 36 +17 13
 0 21 17 19 9 24 8 0 0 +16 18 26 0 ?17 35 37 38 0 0 1 17 34 0 0 0 0 33 32 35 0 0
 -16 35 34 0 ?32 39 18 40 0 0 1 16 39 42 0 ?29 41 35 42 0 0 1 30 40 36 0 35 38 4
2 0 +0 -.0075 0 -1 0 0 30 38 28 0 18 43 40 0 +.025 578241158658936e-32 0 2312964
634635745e-31 -1 0 31 255 42 44 0 39 40 44 0 -0 -.02 0 0 0 -1 -1 0 0 .024 30 44
 52 0 41 42 11 0 +0 -.0075 0 -1 0 0 16 41 50 0 ?22 14 39 44 0 0 1 30 11 60 0 14
 44 5 0 +-.025 -578241158658936e-32 0 -2312964634635745e-31 1 0 16 14 58 0 ?19 8
 41 11 0 0 1 17 22 0 21 19 29 20 45 41 0 23 +17 29 0 21 22 32 25 36 39 0 45 +17
 45 0 0 0 0 25 22 41 0 0 -17 23 0 0 0 0 20 19 14 0 0 -17 36 0 0 0 0 30 29 39 0 0
 -31 43 20 0 37 46 38 0 -.02 734788079488412e-32 0 0 0 -1 -1 0 0 .00165 16 37 18
 0 ?47 18 48 43 0 0 1 31 46 12 0 48 0 43 0 --.02 0 0 0 0 -1 -1 0 0 .00165 16 48
 10 0 ?49 37 0 46 0 0 1 17 49 0 50 49 49 0 51 48 0 0 +15 50 7 0 49 10 52 17 51 0
 0 0 0 0 49 48 0 0 -14 255 10 1 0 ?0 0 50 3 4 +0 0 0 0 3 15 52 8 0 47 10 21 17 4
7 0 52 47 47 0 53 37 0 0 +17 53 0 0 0 0 0 47 37 0 0 -17 24 0 0 0 0 16 13 8 0 0 -
1 0 
