999
"DXF R12 Output" (www.mydxf.blogspot.com)
 0 
SECTION
 2 
HEADER
 9 
$ACADVER
 1 
AC1009
 9 
$EXTMIN
 10 
 0 
 20 
 0 
 9 
$EXTMAX
 10 
 8.5 
 20 
 11 
 0 
ENDSEC
 0 
SECTION
 2 
ENTITIES
0
LINE
8
Layer 1
10
138.683000
20
276.341000
11
139.414203
21
272.806734
0
LINE
8
Layer 1
10
139.414203
20
272.806734
11
139.952264
21
268.845494
0
LINE
8
Layer 1
10
139.952264
20
268.845494
11
140.271125
21
263.827375
0
LINE
8
Layer 1
10
140.271125
20
263.827375
11
140.270034
21
261.017109
0
LINE
8
Layer 1
10
140.270034
20
261.017109
11
140.120158
21
258.056771
0
LINE
8
Layer 1
10
140.120158
20
258.056771
11
139.790168
21
254.984411
0
LINE
8
Layer 1
10
139.790168
20
254.984411
11
139.248734
21
251.838078
0
LINE
8
Layer 1
10
139.248734
20
251.838078
11
138.464530
21
248.655821
0
LINE
8
Layer 1
10
138.464530
20
248.655821
11
137.406225
21
245.475689
0
LINE
8
Layer 1
10
137.406225
20
245.475689
11
136.042491
21
242.335733
0
LINE
8
Layer 1
10
136.042491
20
242.335733
11
134.342000
21
239.274000
0
LINE
8
Layer 1
10
134.342000
20
239.274000
11
129.028687
21
231.033293
0
LINE
8
Layer 1
10
129.028687
20
231.033293
11
125.116930
21
225.571594
0
LINE
8
Layer 1
10
125.116930
20
225.571594
11
121.941380
21
221.818535
0
LINE
8
Layer 1
10
121.941380
20
221.818535
11
118.836687
21
218.703750
0
LINE
8
Layer 1
10
118.836687
20
218.703750
11
115.137503
21
215.156871
0
LINE
8
Layer 1
10
115.137503
20
215.156871
11
110.178477
21
210.107531
0
LINE
8
Layer 1
10
110.178477
20
210.107531
11
103.294259
21
202.485363
0
LINE
8
Layer 1
10
103.294259
20
202.485363
11
93.819500
21
191.220000
0
LINE
8
Layer 1
10
93.819500
20
191.220000
11
91.108277
21
187.738183
0
LINE
8
Layer 1
10
91.108277
20
187.738183
11
88.575686
21
184.144926
0
LINE
8
Layer 1
10
88.575686
20
184.144926
11
86.224855
21
180.446423
0
LINE
8
Layer 1
10
86.224855
20
180.446423
11
84.058911
21
176.648870
0
LINE
8
Layer 1
10
84.058911
20
176.648870
11
82.080983
21
172.758463
0
LINE
8
Layer 1
10
82.080983
20
172.758463
11
80.294198
21
168.781397
0
LINE
8
Layer 1
10
80.294198
20
168.781397
11
78.701683
21
164.723867
0
LINE
8
Layer 1
10
78.701683
20
164.723867
11
77.306566
21
160.592070
0
LINE
8
Layer 1
10
77.306566
20
160.592070
11
76.111974
21
156.392201
0
LINE
8
Layer 1
10
76.111974
20
156.392201
11
75.121036
21
152.130455
0
LINE
8
Layer 1
10
75.121036
20
152.130455
11
74.336879
21
147.813027
0
LINE
8
Layer 1
10
74.336879
20
147.813027
11
73.762631
21
143.446114
0
LINE
8
Layer 1
10
73.762631
20
143.446114
11
73.401419
21
139.035910
0
LINE
8
Layer 1
10
73.401419
20
139.035910
11
73.256370
21
134.588612
0
LINE
8
Layer 1
10
73.256370
20
134.588612
11
73.330613
21
130.110414
0
LINE
8
Layer 1
10
73.330613
20
130.110414
11
73.627275
21
125.607512
0
LINE
8
Layer 1
10
73.627275
20
125.607512
11
74.149484
21
121.086103
0
LINE
8
Layer 1
10
74.149484
20
121.086103
11
74.900367
21
116.552380
0
LINE
8
Layer 1
10
74.900367
20
116.552380
11
75.883052
21
112.012540
0
LINE
8
Layer 1
10
75.883052
20
112.012540
11
77.100666
21
107.472778
0
LINE
8
Layer 1
10
77.100666
20
107.472778
11
78.556338
21
102.939290
0
LINE
8
Layer 1
10
78.556338
20
102.939290
11
80.253194
21
98.418271
0
LINE
8
Layer 1
10
80.253194
20
98.418271
11
82.194363
21
93.915917
0
LINE
8
Layer 1
10
82.194363
20
93.915917
11
84.382972
21
89.438423
0
LINE
8
Layer 1
10
84.382972
20
89.438423
11
86.822148
21
84.991985
0
LINE
8
Layer 1
10
86.822148
20
84.991985
11
89.515020
21
80.582798
0
LINE
8
Layer 1
10
89.515020
20
80.582798
11
92.464715
21
76.217058
0
LINE
8
Layer 1
10
92.464715
20
76.217058
11
95.674361
21
71.900960
0
LINE
8
Layer 1
10
95.674361
20
71.900960
11
99.147084
21
67.640700
0
LINE
8
Layer 1
10
99.147084
20
67.640700
11
102.886013
21
63.442473
0
LINE
8
Layer 1
10
102.886013
20
63.442473
11
106.894276
21
59.312474
0
LINE
8
Layer 1
10
106.894276
20
59.312474
11
111.175000
21
55.256900
0
LINE
8
Layer 1
10
111.175000
20
55.256900
11
114.459349
21
52.160270
0
LINE
8
Layer 1
10
114.459349
20
52.160270
11
117.570809
21
49.018637
0
LINE
8
Layer 1
10
117.570809
20
49.018637
11
123.253531
21
42.735461
0
LINE
8
Layer 1
10
123.253531
20
42.735461
11
128.180113
21
36.677583
0
LINE
8
Layer 1
10
128.180113
20
36.677583
11
132.307500
21
31.115212
0
LINE
8
Layer 1
10
132.307500
20
31.115212
11
135.592637
21
26.318559
0
LINE
8
Layer 1
10
135.592637
20
26.318559
11
137.992469
21
22.557833
0
LINE
8
Layer 1
10
137.992469
20
22.557833
11
139.964000
21
19.225000
0
LINE
8
Layer 1
10
139.964000
20
19.225000
11
141.392270
21
19.671583
0
LINE
8
Layer 1
10
141.392270
20
19.671583
11
145.355844
21
21.173161
0
LINE
8
Layer 1
10
145.355844
20
21.173161
11
151.372871
21
23.972481
0
LINE
8
Layer 1
10
151.372871
20
23.972481
11
155.000851
21
25.934652
0
LINE
8
Layer 1
10
155.000851
20
25.934652
11
158.961500
21
28.312288
0
LINE
8
Layer 1
10
158.961500
20
28.312288
11
163.194586
21
31.135732
0
LINE
8
Layer 1
10
163.194586
20
31.135732
11
167.639879
21
34.435327
0
LINE
8
Layer 1
10
167.639879
20
34.435327
11
172.237146
21
38.241417
0
LINE
8
Layer 1
10
172.237146
20
38.241417
11
176.926156
21
42.584345
0
LINE
8
Layer 1
10
176.926156
20
42.584345
11
181.646678
21
47.494454
0
LINE
8
Layer 1
10
181.646678
20
47.494454
11
186.338480
21
53.002088
0
LINE
8
Layer 1
10
186.338480
20
53.002088
11
190.941332
21
59.137589
0
LINE
8
Layer 1
10
190.941332
20
59.137589
11
195.395000
21
65.931300
0
LINE
8
Layer 1
10
195.395000
20
65.931300
11
198.789698
21
71.895193
0
LINE
8
Layer 1
10
198.789698
20
71.895193
11
201.627955
21
77.747918
0
LINE
8
Layer 1
10
201.627955
20
77.747918
11
203.930645
21
83.496070
0
LINE
8
Layer 1
10
203.930645
20
83.496070
11
205.718641
21
89.146241
0
LINE
8
Layer 1
10
205.718641
20
89.146241
11
207.012814
21
94.705025
0
LINE
8
Layer 1
10
207.012814
20
94.705025
11
207.834037
21
100.179018
0
LINE
8
Layer 1
10
207.834037
20
100.179018
11
208.203183
21
105.574811
0
LINE
8
Layer 1
10
208.203183
20
105.574811
11
208.141125
21
110.899000
0
LINE
8
Layer 1
10
208.141125
20
110.899000
11
207.668735
21
116.158178
0
LINE
8
Layer 1
10
207.668735
20
116.158178
11
206.806885
21
121.358939
0
LINE
8
Layer 1
10
206.806885
20
121.358939
11
205.576448
21
126.507876
0
LINE
8
Layer 1
10
205.576448
20
126.507876
11
203.998297
21
131.611584
0
LINE
8
Layer 1
10
203.998297
20
131.611584
11
202.093304
21
136.676657
0
LINE
8
Layer 1
10
202.093304
20
136.676657
11
199.882342
21
141.709688
0
LINE
8
Layer 1
10
199.882342
20
141.709688
11
197.386283
21
146.717271
0
LINE
8
Layer 1
10
197.386283
20
146.717271
11
194.626000
21
151.706000
0
LINE
8
Layer 1
10
194.626000
20
151.706000
11
193.176927
21
154.395992
0
LINE
8
Layer 1
10
193.176927
20
154.395992
11
191.883237
21
157.178563
0
LINE
8
Layer 1
10
191.883237
20
157.178563
11
190.737757
21
160.042041
0
LINE
8
Layer 1
10
190.737757
20
160.042041
11
189.733314
21
162.974754
0
LINE
8
Layer 1
10
189.733314
20
162.974754
11
188.118848
21
169.001201
0
LINE
8
Layer 1
10
188.118848
20
169.001201
11
186.982453
21
175.164531
0
LINE
8
Layer 1
10
186.982453
20
175.164531
11
186.266743
21
181.371374
0
LINE
8
Layer 1
10
186.266743
20
181.371374
11
185.914334
21
187.528355
0
LINE
8
Layer 1
10
185.914334
20
187.528355
11
185.867840
21
193.542105
0
LINE
8
Layer 1
10
185.867840
20
193.542105
11
186.069875
21
199.319250
0
LINE
8
Layer 1
10
186.069875
20
199.319250
11
186.463055
21
204.766418
0
LINE
8
Layer 1
10
186.463055
20
204.766418
11
186.989994
21
209.790238
0
LINE
8
Layer 1
10
186.989994
20
209.790238
11
188.215609
21
218.194344
0
LINE
8
Layer 1
10
188.215609
20
218.194344
11
189.287639
21
223.784590
0
LINE
8
Layer 1
10
189.287639
20
223.784590
11
189.747000
21
225.814000
0
LINE
8
Layer 1
10
189.747000
20
225.814000
11
187.467094
21
224.553016
0
LINE
8
Layer 1
10
187.467094
20
224.553016
11
184.928027
21
222.868100
0
LINE
8
Layer 1
10
184.928027
20
222.868100
11
181.732500
21
220.383625
0
LINE
8
Layer 1
10
181.732500
20
220.383625
11
178.087723
21
217.027135
0
LINE
8
Layer 1
10
178.087723
20
217.027135
11
174.200906
21
212.726172
0
LINE
8
Layer 1
10
174.200906
20
212.726172
11
172.231487
21
210.198870
0
LINE
8
Layer 1
10
172.231487
20
210.198870
11
170.279262
21
207.408279
0
LINE
8
Layer 1
10
170.279262
20
207.408279
11
168.370132
21
204.345342
0
LINE
8
Layer 1
10
168.370132
20
204.345342
11
166.530000
21
201.001000
0
LINE
8
Layer 1
10
166.530000
20
201.001000
11
165.217915
21
198.251572
0
LINE
8
Layer 1
10
165.217915
20
198.251572
11
164.002396
21
195.292623
0
LINE
8
Layer 1
10
164.002396
20
195.292623
11
162.890364
21
192.149406
0
LINE
8
Layer 1
10
162.890364
20
192.149406
11
161.888734
21
188.847172
0
LINE
8
Layer 1
10
161.888734
20
188.847172
11
160.244361
21
181.866666
0
LINE
8
Layer 1
10
160.244361
20
181.866666
11
159.124625
21
174.553125
0
LINE
8
Layer 1
10
159.124625
20
174.553125
11
158.778792
21
170.834597
0
LINE
8
Layer 1
10
158.778792
20
170.834597
11
158.584873
21
167.108568
0
LINE
8
Layer 1
10
158.584873
20
167.108568
11
158.549787
21
163.400290
0
LINE
8
Layer 1
10
158.549787
20
163.400290
11
158.680453
21
159.735016
0
LINE
8
Layer 1
10
158.680453
20
159.735016
11
158.983789
21
156.137997
0
LINE
8
Layer 1
10
158.983789
20
156.137997
11
159.466713
21
152.634486
0
LINE
8
Layer 1
10
159.466713
20
152.634486
11
160.136144
21
149.249737
0
LINE
8
Layer 1
10
160.136144
20
149.249737
11
160.999000
21
146.009000
0
LINE
8
Layer 1
10
160.999000
20
146.009000
11
164.152244
21
136.226705
0
LINE
8
Layer 1
10
164.152244
20
136.226705
11
167.143078
21
127.819641
0
LINE
8
Layer 1
10
167.143078
20
127.819641
11
172.240625
21
114.531625
0
LINE
8
Layer 1
10
172.240625
20
114.531625
11
174.148893
21
109.350885
0
LINE
8
Layer 1
10
174.148893
20
109.350885
11
175.497859
21
104.945797
0
LINE
8
Layer 1
10
175.497859
20
104.945797
11
175.931598
21
102.987281
0
LINE
8
Layer 1
10
175.931598
20
102.987281
11
176.188303
21
101.166467
0
LINE
8
Layer 1
10
176.188303
20
101.166467
11
176.255571
21
99.464619
0
LINE
8
Layer 1
10
176.255571
20
99.464619
11
176.121000
21
97.863000
0
LINE
8
Layer 1
10
176.121000
20
97.863000
11
175.857074
21
97.227828
0
LINE
8
Layer 1
10
175.857074
20
97.227828
11
175.367699
21
97.152660
0
LINE
8
Layer 1
10
175.367699
20
97.152660
11
174.676733
21
97.588012
0
LINE
8
Layer 1
10
174.676733
20
97.588012
11
173.808031
21
98.484402
0
LINE
8
Layer 1
10
173.808031
20
98.484402
11
171.632848
21
101.462358
0
LINE
8
Layer 1
10
171.632848
20
101.462358
11
169.033000
21
105.690663
0
LINE
8
Layer 1
10
169.033000
20
105.690663
11
166.199340
21
110.773446
0
LINE
8
Layer 1
10
166.199340
20
110.773446
11
163.322719
21
116.314842
0
LINE
8
Layer 1
10
163.322719
20
116.314842
11
160.593988
21
121.918983
0
LINE
8
Layer 1
10
160.593988
20
121.918983
11
158.204000
21
127.190000
0
LINE
8
Layer 1
10
158.204000
20
127.190000
11
156.212529
21
131.896236
0
LINE
8
Layer 1
10
156.212529
20
131.896236
11
154.543172
21
136.213328
0
LINE
8
Layer 1
10
154.543172
20
136.213328
11
153.182510
21
140.357475
0
LINE
8
Layer 1
10
153.182510
20
140.357475
11
152.117125
21
144.544875
0
LINE
8
Layer 1
10
152.117125
20
144.544875
11
151.333600
21
148.991729
0
LINE
8
Layer 1
10
151.333600
20
148.991729
11
150.818516
21
153.914234
0
LINE
8
Layer 1
10
150.818516
20
153.914234
11
150.558455
21
159.528592
0
LINE
8
Layer 1
10
150.558455
20
159.528592
11
150.540000
21
166.051000
0
LINE
8
Layer 1
10
150.540000
20
166.051000
11
150.690457
21
169.619076
0
LINE
8
Layer 1
10
150.690457
20
169.619076
11
151.026375
21
173.248027
0
LINE
8
Layer 1
10
151.026375
20
173.248027
11
152.146875
21
180.527906
0
LINE
8
Layer 1
10
152.146875
20
180.527906
11
153.686063
21
187.569332
0
LINE
8
Layer 1
10
153.686063
20
187.569332
11
155.428500
21
194.051000
0
LINE
8
Layer 1
10
155.428500
20
194.051000
11
157.158750
21
199.651605
0
LINE
8
Layer 1
10
157.158750
20
199.651605
11
158.661375
21
204.049844
0
LINE
8
Layer 1
10
158.661375
20
204.049844
11
160.122000
21
207.954000
0
LINE
8
Layer 1
10
160.122000
20
207.954000
11
154.762000
21
203.229141
0
LINE
8
Layer 1
10
154.762000
20
203.229141
11
149.124984
21
197.938951
0
LINE
8
Layer 1
10
149.124984
20
197.938951
11
142.461500
21
191.244375
0
LINE
8
Layer 1
10
142.461500
20
191.244375
11
135.480203
21
183.556002
0
LINE
8
Layer 1
10
135.480203
20
183.556002
11
132.091830
21
179.467451
0
LINE
8
Layer 1
10
132.091830
20
179.467451
11
128.889750
21
175.284422
0
LINE
8
Layer 1
10
128.889750
20
175.284422
11
125.962545
21
171.058239
0
LINE
8
Layer 1
10
125.962545
20
171.058239
11
123.398797
21
166.840225
0
LINE
8
Layer 1
10
123.398797
20
166.840225
11
121.287088
21
162.681704
0
LINE
8
Layer 1
10
121.287088
20
162.681704
11
119.716000
21
158.634000
0
LINE
8
Layer 1
10
119.716000
20
158.634000
11
118.962566
21
155.908105
0
LINE
8
Layer 1
10
118.962566
20
155.908105
11
118.424161
21
153.145915
0
LINE
8
Layer 1
10
118.424161
20
153.145915
11
118.088250
21
150.355485
0
LINE
8
Layer 1
10
118.088250
20
150.355485
11
117.942301
21
147.544871
0
LINE
8
Layer 1
10
117.942301
20
147.544871
11
117.973781
21
144.722127
0
LINE
8
Layer 1
10
117.973781
20
144.722127
11
118.170158
21
141.895309
0
LINE
8
Layer 1
10
118.170158
20
141.895309
11
119.007469
21
136.261672
0
LINE
8
Layer 1
10
119.007469
20
136.261672
11
120.353971
21
130.708401
0
LINE
8
Layer 1
10
120.353971
20
130.708401
11
122.109402
21
125.299937
0
LINE
8
Layer 1
10
122.109402
20
125.299937
11
124.173500
21
120.100723
0
LINE
8
Layer 1
10
124.173500
20
120.100723
11
126.446000
21
115.175200
0
LINE
8
Layer 1
10
126.446000
20
115.175200
11
128.826641
21
110.587810
0
LINE
8
Layer 1
10
128.826641
20
110.587810
11
131.215160
21
106.402994
0
LINE
8
Layer 1
10
131.215160
20
106.402994
11
135.614781
21
99.498853
0
LINE
8
Layer 1
10
135.614781
20
99.498853
11
138.842762
21
94.978311
0
LINE
8
Layer 1
10
138.842762
20
94.978311
11
140.097000
21
93.356900
0
LINE
8
Layer 1
10
140.097000
20
93.356900
11
139.458297
21
101.295822
0
LINE
8
Layer 1
10
139.458297
20
101.295822
11
138.375875
21
117.811200
0
LINE
8
Layer 1
10
138.375875
20
117.811200
11
138.059061
21
125.862535
0
LINE
8
Layer 1
10
138.059061
20
125.862535
11
138.100266
21
131.950953
0
LINE
8
Layer 1
10
138.100266
20
131.950953
11
138.303974
21
133.831253
0
LINE
8
Layer 1
10
138.303974
20
133.831253
11
138.655807
21
134.707445
0
LINE
8
Layer 1
10
138.655807
20
134.707445
11
138.893375
21
134.715523
0
LINE
8
Layer 1
10
138.893375
20
134.715523
11
139.175302
21
134.408403
0
LINE
8
Layer 1
10
139.175302
20
134.408403
11
139.882000
21
132.763000
0
LINE
8
Layer 1
10
139.882000
20
132.763000
11
141.635426
21
127.239143
0
LINE
8
Layer 1
10
141.635426
20
127.239143
11
143.503719
21
120.519217
0
LINE
8
Layer 1
10
143.503719
20
120.519217
11
145.239777
21
113.126942
0
LINE
8
Layer 1
10
145.239777
20
113.126942
11
146.596500
21
105.586038
0
LINE
8
Layer 1
10
146.596500
20
105.586038
11
147.055391
21
101.923511
0
LINE
8
Layer 1
10
147.055391
20
101.923511
11
147.326785
21
98.420222
0
LINE
8
Layer 1
10
147.326785
20
98.420222
11
147.379794
21
95.141634
0
LINE
8
Layer 1
10
147.379794
20
95.141634
11
147.183531
21
92.153214
0
LINE
8
Layer 1
10
147.183531
20
92.153214
11
146.707108
21
89.520426
0
LINE
8
Layer 1
10
146.707108
20
89.520426
11
145.919637
21
87.308734
0
LINE
8
Layer 1
10
145.919637
20
87.308734
11
144.790230
21
85.583604
0
LINE
8
Layer 1
10
144.790230
20
85.583604
11
144.087648
21
84.923957
0
LINE
8
Layer 1
10
144.087648
20
84.923957
11
143.288000
21
84.410500
0
LINE
8
Layer 1
10
143.288000
20
84.410500
11
142.817750
21
84.289654
0
LINE
8
Layer 1
10
142.817750
20
84.289654
11
142.199373
21
84.329904
0
LINE
8
Layer 1
10
142.199373
20
84.329904
11
140.563236
21
84.884250
0
LINE
8
Layer 1
10
140.563236
20
84.884250
11
138.469579
21
86.054649
0
LINE
8
Layer 1
10
138.469579
20
86.054649
11
136.008391
21
87.822216
0
LINE
8
Layer 1
10
136.008391
20
87.822216
11
133.269661
21
90.168061
0
LINE
8
Layer 1
10
133.269661
20
90.168061
11
130.343381
21
93.073299
0
LINE
8
Layer 1
10
130.343381
20
93.073299
11
127.319539
21
96.519041
0
LINE
8
Layer 1
10
127.319539
20
96.519041
11
124.288125
21
100.486400
0
LINE
8
Layer 1
10
124.288125
20
100.486400
11
121.339129
21
104.956489
0
LINE
8
Layer 1
10
121.339129
20
104.956489
11
118.562541
21
109.910420
0
LINE
8
Layer 1
10
118.562541
20
109.910420
11
116.048350
21
115.329306
0
LINE
8
Layer 1
10
116.048350
20
115.329306
11
113.886547
21
121.194259
0
LINE
8
Layer 1
10
113.886547
20
121.194259
11
112.167120
21
127.486393
0
LINE
8
Layer 1
10
112.167120
20
127.486393
11
111.501420
21
130.786750
0
LINE
8
Layer 1
10
111.501420
20
130.786750
11
110.980061
21
134.186819
0
LINE
8
Layer 1
10
110.980061
20
134.186819
11
110.614290
21
137.684240
0
LINE
8
Layer 1
10
110.614290
20
137.684240
11
110.415357
21
141.276651
0
LINE
8
Layer 1
10
110.415357
20
141.276651
11
110.394511
21
144.961691
0
LINE
8
Layer 1
10
110.394511
20
144.961691
11
110.563000
21
148.737000
0
LINE
8
Layer 1
10
110.563000
20
148.737000
11
110.895225
21
152.211511
0
LINE
8
Layer 1
10
110.895225
20
152.211511
11
111.390352
21
155.541534
0
LINE
8
Layer 1
10
111.390352
20
155.541534
11
112.039686
21
158.733247
0
LINE
8
Layer 1
10
112.039686
20
158.733247
11
112.834533
21
161.792822
0
LINE
8
Layer 1
10
112.834533
20
161.792822
11
113.766197
21
164.726437
0
LINE
8
Layer 1
10
113.766197
20
164.726437
11
114.825983
21
167.540265
0
LINE
8
Layer 1
10
114.825983
20
167.540265
11
117.295141
21
172.833266
0
LINE
8
Layer 1
10
117.295141
20
172.833266
11
120.172445
21
177.721225
0
LINE
8
Layer 1
10
120.172445
20
177.721225
11
123.388334
21
182.253545
0
LINE
8
Layer 1
10
123.388334
20
182.253545
11
126.873248
21
186.479628
0
LINE
8
Layer 1
10
126.873248
20
186.479628
11
130.557625
21
190.448875
0
LINE
8
Layer 1
10
130.557625
20
190.448875
11
134.371905
21
194.210689
0
LINE
8
Layer 1
10
134.371905
20
194.210689
11
138.246525
21
197.814471
0
LINE
8
Layer 1
10
138.246525
20
197.814471
11
145.898547
21
204.745547
0
LINE
8
Layer 1
10
145.898547
20
204.745547
11
149.536825
21
208.171645
0
LINE
8
Layer 1
10
149.536825
20
208.171645
11
152.957201
21
211.637318
0
LINE
8
Layer 1
10
152.957201
20
211.637318
11
156.090113
21
215.191969
0
LINE
8
Layer 1
10
156.090113
20
215.191969
11
158.866000
21
218.885000
0
LINE
8
Layer 1
10
158.866000
20
218.885000
11
160.110062
21
220.961058
0
LINE
8
Layer 1
10
160.110062
20
220.961058
11
161.077971
21
223.110098
0
LINE
8
Layer 1
10
161.077971
20
223.110098
11
161.785245
21
225.323011
0
LINE
8
Layer 1
10
161.785245
20
225.323011
11
162.247406
21
227.590689
0
LINE
8
Layer 1
10
162.247406
20
227.590689
11
162.479973
21
229.904025
0
LINE
8
Layer 1
10
162.479973
20
229.904025
11
162.498467
21
232.253909
0
LINE
8
Layer 1
10
162.498467
20
232.253909
11
162.318406
21
234.631234
0
LINE
8
Layer 1
10
162.318406
20
234.631234
11
161.955312
21
237.026891
0
LINE
8
Layer 1
10
161.955312
20
237.026891
11
161.424705
21
239.431772
0
LINE
8
Layer 1
10
161.424705
20
239.431772
11
160.742104
21
241.836769
0
LINE
8
Layer 1
10
160.742104
20
241.836769
11
158.983000
21
246.610678
0
LINE
8
Layer 1
10
158.983000
20
246.610678
11
156.802162
21
251.275752
0
LINE
8
Layer 1
10
156.802162
20
251.275752
11
154.323750
21
255.759125
0
LINE
8
Layer 1
10
154.323750
20
255.759125
11
151.671924
21
259.987932
0
LINE
8
Layer 1
10
151.671924
20
259.987932
11
148.970844
21
263.889307
0
LINE
8
Layer 1
10
148.970844
20
263.889307
11
146.344670
21
267.390384
0
LINE
8
Layer 1
10
146.344670
20
267.390384
11
143.917562
21
270.418297
0
LINE
8
Layer 1
10
143.917562
20
270.418297
11
140.157187
21
274.763170
0
LINE
8
Layer 1
10
140.157187
20
274.763170
11
138.683000
21
276.341000
0
LINE
8
Layer 1
10
138.683000
20
276.341000
11
138.683000
21
276.341000
0
LINE
8
Layer 1
10
130.588000
20
147.299000
11
129.811000
21
124.536000
0
LINE
8
Layer 1
10
129.811000
20
124.536000
11
128.411500
21
128.372125
0
LINE
8
Layer 1
10
128.411500
20
128.372125
11
127.197063
21
132.267703
0
LINE
8
Layer 1
10
127.197063
20
132.267703
11
126.115000
21
136.682000
0
LINE
8
Layer 1
10
126.115000
20
136.682000
11
125.836798
21
138.439460
0
LINE
8
Layer 1
10
125.836798
20
138.439460
11
125.734990
21
139.992354
0
LINE
8
Layer 1
10
125.734990
20
139.992354
11
125.787715
21
141.353261
0
LINE
8
Layer 1
10
125.787715
20
141.353261
11
125.973109
21
142.534766
0
LINE
8
Layer 1
10
125.973109
20
142.534766
11
126.654455
21
144.409889
0
LINE
8
Layer 1
10
126.654455
20
144.409889
11
127.604125
21
145.718375
0
LINE
8
Layer 1
10
127.604125
20
145.718375
11
128.647217
21
146.560877
0
LINE
8
Layer 1
10
128.647217
20
146.560877
11
129.608828
21
147.038047
0
LINE
8
Layer 1
10
129.608828
20
147.038047
11
130.588000
21
147.299000
0
LINE
8
Layer 1
10
130.588000
20
147.299000
11
130.588000
21
147.299000
 0 
ENDSEC
 0 
EOF